<?xml version="1.0" standalone="no"?><!DOCTYPE svg PUBLIC "-//W3C//DTD SVG 1.1//EN" "http://www.w3.org/Graphics/SVG/1.1/DTD/svg11.dtd"><svg t="1703488559511" class="icon" viewBox="0 0 1024 1024" version="1.1" xmlns="http://www.w3.org/2000/svg" p-id="10716" xmlns:xlink="http://www.w3.org/1999/xlink" width="200" height="200"><path d="M127.658667 492.885333c0-51.882667 10.24-101.717333 30.378666-149.162666s47.786667-88.064 81.92-122.538667 75.093333-61.781333 122.538667-81.92 96.938667-30.378667 149.162667-30.378667 101.717333 10.24 149.162666 30.378667 88.405333 47.786667 122.88 81.92 61.781333 75.093333 81.92 122.538667 30.378667 96.938667 30.378667 149.162666-10.24 101.717333-30.378667 149.162667-47.786667 88.405333-81.92 122.88-75.093333 61.781333-122.88 81.92-97.28 30.378667-149.162666 30.378667-101.717333-10.24-149.162667-30.378667-88.064-47.786667-122.538667-81.92-61.781333-75.093333-81.92-122.88-30.378667-96.938667-30.378666-149.162667z m40.96 0c0 43.349333 7.850667 84.992 23.893333 124.928s37.205333 75.093333 64.512 105.130667 59.733333 54.954667 97.28 74.752 77.824 32.085333 120.149333 36.864c-59.733333-35.498667-101.717333-81.578667-126.293333-138.922667s-36.864-124.928-36.864-202.410666c0-70.656 15.018667-136.533333 45.056-197.290667s71.68-109.226667 124.928-144.725333c-43.008 3.754667-83.968 15.36-122.538667 34.816s-71.68 44.373333-99.669333 74.752-49.834667 65.536-65.877333 106.154666-24.576 81.92-24.576 125.952z" p-id="10717" fill="#cdcdcd"></path></svg>